# Blender v2.92.0 OBJ File: 'untitled.blend'
# www.blender.org
o Cube.001_Cube.002
v -1.191136 -0.558263 0.900000
v -1.191136 0.808664 0.900000
v -1.191136 -0.558263 -0.900000
v -1.191136 0.808664 -0.900000
v 1.191136 -0.558263 0.900000
v 1.191136 0.808664 0.900000
v 1.191136 -0.558263 -0.900000
v 1.191136 0.808664 -0.900000
v -1.191136 -0.558263 -0.833333
v -1.191136 -0.558263 0.833333
v -1.191136 0.808664 0.833333
v -1.191136 0.808664 -0.833333
v 1.191136 -0.558263 0.833333
v 1.191136 -0.558263 -0.833333
v 1.191136 0.808664 -0.833333
v 1.191136 0.808664 0.833333
v 1.117613 -0.558263 -0.900000
v -1.117613 -0.558263 -0.900000
v -1.117613 0.808664 -0.900000
v 1.117613 0.808664 -0.900000
v -1.117613 -0.558263 0.900000
v 1.117613 -0.558263 0.900000
v 1.117613 0.808664 0.900000
v -1.117613 0.808664 0.900000
v -1.117613 0.808664 -0.833333
v 1.117613 0.808664 -0.833333
v -1.117613 0.808664 0.833333
v 1.117613 0.808664 0.833333
v 1.117613 -0.558263 -0.833333
v -1.117613 -0.558263 -0.833333
v 1.117613 -0.558263 0.833333
v -1.117613 -0.558263 0.833333
v 1.272048 0.809813 -0.948486
v -1.272048 0.809813 -0.948486
v -1.272048 0.809813 0.948486
v 1.272048 0.809813 0.948486
v -1.272048 1.782238 0.000000
v 1.272048 1.782238 0.000000
v 1.117613 0.413972 0.833333
v -1.117613 0.413972 0.833333
v 0.269313 0.808664 0.833333
v 0.269313 -0.558263 0.833333
v 0.269313 0.413972 0.833333
v -0.289493 -0.558263 0.833333
v -0.289493 0.808664 0.833333
v -0.289493 0.413972 0.833333
v 0.269313 0.413972 1.007478
v 0.269313 -0.558263 1.007478
v -0.289493 0.413972 1.007478
v -0.289493 -0.558263 1.007478
v 0.241373 0.365360 1.007478
v 0.241373 -0.509652 1.007478
v -0.261553 0.365360 1.007478
v -0.261553 -0.509652 1.007478
v 0.241373 0.365360 0.917346
v 0.241373 -0.509652 0.917346
v -0.261553 0.365360 0.917346
v -0.261553 -0.509652 0.917346
v 0.269313 -0.558263 1.266949
v -0.289493 -0.558263 1.266949
v 0.241373 -0.509652 1.266949
v -0.261553 -0.509652 1.266949
v 0.673421 0.981570 0.706768
v 0.673421 1.673724 0.706768
v 0.673421 0.981570 0.416771
v 0.673421 1.673724 0.416771
v 0.963418 0.981570 0.706768
v 0.963418 1.673724 0.706768
v 0.963418 0.981570 0.416771
v 0.963418 1.673724 0.416771
v 0.720191 1.673724 0.659998
v 0.720191 1.673724 0.463541
v 0.916648 1.673724 0.463541
v 0.916648 1.673724 0.659998
v 0.720191 1.401290 0.659998
v 0.720191 1.401290 0.463541
v 0.916648 1.401290 0.463541
v 0.916648 1.401290 0.659998
v -1.272048 0.685459 -0.948486
v 1.272048 0.685459 -0.948486
v -1.272048 0.685459 0.948486
v 1.272048 0.685459 0.948486
v -1.272048 1.657884 0.000000
v 1.272048 1.657884 0.000000
v -1.117613 1.696453 0.000000
v 1.117613 1.696453 0.000000
vt 0.413501 0.647361
vt 0.422297 0.827714
vt 0.413501 0.827714
vt 0.432513 0.818013
vt 0.422813 0.637661
vt 0.432513 0.637661
vt 0.802631 0.751004
vt 0.622279 0.759800
vt 0.622279 0.751004
vt 0.433028 0.678008
vt 0.613380 0.668308
vt 0.613380 0.678008
vt 0.812330 0.769627
vt 0.802629 0.778423
vt 0.802629 0.769627
vt 0.412986 0.647361
vt 0.404190 0.637661
vt 0.412986 0.637661
vt 0.422297 0.647361
vt 0.413501 0.637661
vt 0.422297 0.637661
vt 0.415792 0.626985
vt 0.492687 0.289957
vt 0.621764 0.415916
vt 0.453460 0.688740
vt 0.462256 0.698440
vt 0.453460 0.698440
vt 0.335306 0.136377
vt 0.424895 0.044570
vt 0.802631 0.760315
vt 0.622279 0.769112
vt 0.622279 0.760316
vt 0.243499 0.046788
vt 0.258997 0.214575
vt 0.167190 0.124986
vt 0.404190 0.647361
vt 0.412986 0.827714
vt 0.404190 0.827714
vt 0.039745 0.439253
vt 0.129335 0.347446
vt 0.286715 0.501026
vt 0.442729 0.869091
vt 0.433028 0.869091
vt 0.433028 0.740815
vt 0.207504 0.267342
vt 0.422297 0.837414
vt 0.433028 0.688224
vt 0.613380 0.678524
vt 0.613380 0.688224
vt 0.622279 0.778423
vt 0.622279 0.769627
vt 0.674354 0.769627
vt 0.812332 0.760315
vt 0.802631 0.769112
vt 0.462256 0.878792
vt 0.812332 0.751004
vt 0.802631 0.759800
vt 0.471567 0.817015
vt 0.462771 0.869091
vt 0.462771 0.688739
vt 0.412986 0.837414
vt 0.443244 0.688739
vt 0.452944 0.688739
vt 0.452944 0.740815
vt 0.433028 0.647361
vt 0.613380 0.637661
vt 0.613380 0.647361
vt 0.433028 0.657577
vt 0.613380 0.647877
vt 0.613380 0.657577
vt 0.433028 0.667793
vt 0.613380 0.658092
vt 0.613380 0.667793
vt 0.802631 0.787734
vt 0.622279 0.778938
vt 0.802631 0.778938
vt 0.633735 0.195890
vt 0.633735 0.375116
vt 0.969401 0.375116
vt 0.969401 0.195890
vt 0.969401 0.016665
vt 0.633735 0.016665
vt 0.115697 0.177753
vt 0.037528 0.257857
vt 0.078427 0.141383
vt 0.000258 0.221486
vt 0.206229 0.010418
vt 0.129920 0.088616
vt 0.999742 0.520314
vt 0.976766 0.392038
vt 0.999742 0.392038
vt 0.328792 0.637661
vt 0.363027 0.645058
vt 0.328792 0.645058
vt 0.999742 0.594043
vt 0.976766 0.520314
vt 0.999742 0.722319
vt 0.976766 0.594043
vt 0.999742 0.796047
vt 0.976766 0.722319
vt 0.328277 0.637661
vt 0.261921 0.649553
vt 0.261921 0.637661
vt 0.973080 0.398451
vt 0.973080 0.715905
vt 0.973080 0.600456
vt 0.970352 0.524001
vt 0.261921 0.765001
vt 0.328277 0.649553
vt 0.328277 0.765001
vt 0.973079 0.513900
vt 0.961188 0.398451
vt 0.961188 0.600456
vt 0.970352 0.590356
vt 0.958460 0.524001
vt 0.369440 0.715100
vt 0.363027 0.718787
vt 0.403675 0.715100
vt 0.369440 0.648745
vt 0.403675 0.648745
vt 0.328792 0.718787
vt 0.363027 0.726185
vt 0.328792 0.726185
vt 0.196832 0.756346
vt 0.234351 0.664716
vt 0.261406 0.691771
vt 0.118943 0.729290
vt 0.027313 0.691771
vt 0.054368 0.664716
vt 0.091887 0.807179
vt 0.054368 0.898809
vt 0.027313 0.871754
vt 0.169776 0.834235
vt 0.261406 0.871754
vt 0.234351 0.898809
vt 0.027313 0.637661
vt 0.169776 0.738017
vt 0.169776 0.729290
vt 0.169776 0.825508
vt 0.162688 0.781763
vt 0.188105 0.807179
vt 0.196832 0.807179
vt 0.100614 0.756346
vt 0.091887 0.756346
vt 0.118943 0.825508
vt 0.118943 0.834235
vt 0.144359 0.763434
vt 0.144359 0.800091
vt 0.126031 0.781763
vt 0.118943 0.738017
vt 0.100614 0.807179
vt 0.188105 0.756346
vt 0.622279 0.750489
vt 0.957945 0.750489
vt 0.957945 0.571264
vt 0.957945 0.392038
vt 0.622279 0.392038
vt 0.622279 0.571264
vt 0.969401 0.000258
vt 0.980857 0.386861
vt 0.980857 0.207636
vt 0.622279 0.207636
vt 0.633735 0.391523
vt 0.980857 0.184145
vt 0.622279 0.004920
vt 0.622279 0.184145
vt 0.618646 0.160880
vt 0.461265 0.007300
vt 0.621764 0.000258
vt 0.003375 0.476523
vt 0.160756 0.630103
vt 0.000258 0.637145
vt 0.422812 0.818013
vt 0.433028 0.668308
vt 0.812330 0.778423
vt 0.462256 0.688739
vt 0.433028 0.688739
vt 0.442729 0.688740
vt 0.413501 0.837414
vt 0.433028 0.678524
vt 0.812332 0.769112
vt 0.453460 0.878792
vt 0.812332 0.759800
vt 0.471567 0.688739
vt 0.471567 0.869091
vt 0.404190 0.837414
vt 0.452944 0.869090
vt 0.443244 0.869090
vt 0.433028 0.637661
vt 0.433028 0.647876
vt 0.433028 0.658092
vt 0.622279 0.787734
vt 0.363027 0.637661
vt 0.976766 0.796047
vt 0.961187 0.513900
vt 0.961188 0.715905
vt 0.958460 0.590356
vt 0.000258 0.664716
vt 0.633735 0.000258
vt 0.622279 0.386861
vt 0.969401 0.391523
vt 0.980857 0.004919
vn -1.0000 0.0000 0.0000
vn 0.0000 0.0000 -1.0000
vn 1.0000 0.0000 0.0000
vn 0.0000 0.0000 1.0000
vn 0.0000 -1.0000 0.0000
vn 0.0000 1.0000 0.0000
vn 0.0000 0.6982 0.7159
vn 0.0000 0.6982 -0.7159
vn 0.8670 0.4983 0.0000
vn -0.8670 0.4983 0.0000
vn 0.0000 -0.6982 -0.7159
vn 0.0000 -0.6982 0.7159
s off
f 12/1/1 3/2/1 9/3/1
f 20/4/2 7/5/2 17/6/2
f 16/7/3 5/8/3 13/9/3
f 24/10/4 1/11/4 21/12/4
f 13/13/5 22/14/5 31/15/5
f 11/16/6 24/17/6 27/18/6
f 4/19/6 25/20/6 19/21/6
f 26/22/2 30/23/2 25/24/2
f 7/25/5 29/26/5 17/27/5
f 30/23/1 32/28/1 40/29/1
f 8/30/3 14/31/3 7/32/3
f 40/33/4 44/34/4 46/35/4
f 2/36/1 10/37/1 1/38/1
f 39/39/3 31/40/3 29/41/3
f 13/42/2 31/43/2 39/44/2
f 29/41/5 31/40/5 42/45/5
f 18/46/5 9/3/5 3/2/5
f 29/47/4 15/48/4 26/49/4
f 23/50/1 28/51/1 39/52/1
f 20/53/6 15/54/6 8/30/6
f 26/55/1 17/27/1 29/26/1
f 28/56/6 6/57/6 16/7/6
f 40/58/3 24/59/3 21/60/3
f 32/61/5 1/38/5 10/37/5
f 11/62/2 27/63/2 40/64/2
f 6/65/4 22/66/4 5/67/4
f 25/68/4 9/69/4 30/70/4
f 4/71/2 18/72/2 3/73/2
f 18/74/3 25/75/3 30/76/3
f 37/77/7 35/78/7 36/79/7
f 38/80/8 33/81/8 34/82/8
f 43/83/4 31/40/4 39/84/4
f 41/85/4 39/84/4 28/86/4
f 27/87/4 46/35/4 45/88/4
f 45/88/4 43/83/4 41/85/4
f 43/89/3 48/90/3 42/91/3
f 52/92/9 59/93/9 48/94/9
f 46/95/6 47/96/6 43/89/6
f 44/97/1 49/98/1 46/95/1
f 42/99/5 50/100/5 44/97/5
f 52/101/6 58/102/6 54/103/6
f 47/96/4 52/104/4 48/90/4
f 49/98/4 54/105/4 53/106/4
f 49/98/4 51/107/4 47/96/4
f 57/108/4 56/109/4 55/110/4
f 51/111/1 56/112/1 52/104/1
f 54/105/3 57/113/3 53/106/3
f 53/114/5 55/115/5 51/107/5
f 59/93/4 62/116/4 60/117/4
f 54/118/6 61/119/6 52/120/6
f 48/94/5 60/117/5 50/121/5
f 50/121/10 62/122/10 54/123/10
f 64/124/1 65/125/1 63/126/1
f 66/127/2 69/128/2 65/129/2
f 70/130/3 67/131/3 69/132/3
f 68/133/4 63/134/4 67/135/4
f 69/128/5 63/136/5 65/129/5
f 64/124/6 72/137/6 66/138/6
f 74/139/2 75/140/2 71/141/2
f 68/133/6 71/141/6 64/142/6
f 66/127/6 73/143/6 70/144/6
f 70/130/6 74/145/6 68/146/6
f 76/147/6 78/148/6 77/149/6
f 72/150/4 77/149/4 73/143/4
f 73/151/1 78/148/1 74/145/1
f 71/152/3 76/147/3 72/137/3
f 82/153/11 81/154/11 83/155/11
f 79/156/12 80/157/12 84/158/12
f 34/82/2 33/81/2 80/159/2
f 36/79/3 82/160/3 84/161/3
f 35/78/1 37/77/1 83/162/1
f 36/79/4 35/78/4 81/163/4
f 33/81/3 38/80/3 84/164/3
f 34/82/1 79/165/1 83/166/1
f 25/167/1 27/168/1 85/169/1
f 28/170/3 26/171/3 86/172/3
f 12/1/1 4/19/1 3/2/1
f 20/4/2 8/173/2 7/5/2
f 16/7/3 6/57/3 5/8/3
f 24/10/4 2/174/4 1/11/4
f 13/13/5 5/175/5 22/14/5
f 11/16/6 2/36/6 24/17/6
f 4/19/6 12/1/6 25/20/6
f 26/22/2 29/41/2 30/23/2
f 7/25/5 14/176/5 29/26/5
f 40/29/1 27/168/1 25/167/1
f 25/167/1 30/23/1 40/29/1
f 8/30/3 15/54/3 14/31/3
f 40/33/4 32/28/4 44/34/4
f 2/36/1 11/16/1 10/37/1
f 29/41/3 26/171/3 39/39/3
f 26/171/3 28/170/3 39/39/3
f 39/44/2 28/177/2 16/178/2
f 16/178/2 13/42/2 39/44/2
f 32/28/5 30/23/5 44/34/5
f 30/23/5 29/41/5 42/45/5
f 44/34/5 30/23/5 42/45/5
f 18/46/5 30/179/5 9/3/5
f 29/47/4 14/180/4 15/48/4
f 39/52/1 31/15/1 22/14/1
f 22/14/1 23/50/1 39/52/1
f 20/53/6 26/181/6 15/54/6
f 26/55/1 20/182/1 17/27/1
f 28/56/6 23/183/6 6/57/6
f 21/60/3 32/184/3 40/58/3
f 40/58/3 27/185/3 24/59/3
f 32/61/5 21/186/5 1/38/5
f 40/64/2 32/187/2 10/188/2
f 10/188/2 11/62/2 40/64/2
f 6/65/4 23/189/4 22/66/4
f 25/68/4 12/190/4 9/69/4
f 4/71/2 19/191/2 18/72/2
f 18/74/3 19/192/3 25/75/3
f 37/77/7 36/79/7 38/80/7
f 38/80/8 34/82/8 37/77/8
f 43/83/4 42/45/4 31/40/4
f 41/85/4 43/83/4 39/84/4
f 27/87/4 40/33/4 46/35/4
f 45/88/4 46/35/4 43/83/4
f 43/89/3 47/96/3 48/90/3
f 52/92/9 61/193/9 59/93/9
f 46/95/6 49/98/6 47/96/6
f 44/97/1 50/100/1 49/98/1
f 42/99/5 48/194/5 50/100/5
f 52/101/6 56/109/6 58/102/6
f 47/96/4 51/111/4 52/104/4
f 49/98/4 50/100/4 54/105/4
f 49/98/4 53/114/4 51/107/4
f 57/108/4 58/102/4 56/109/4
f 51/111/1 55/195/1 56/112/1
f 54/105/3 58/196/3 57/113/3
f 53/114/5 57/197/5 55/115/5
f 59/93/4 61/119/4 62/116/4
f 54/118/6 62/116/6 61/119/6
f 48/94/5 59/93/5 60/117/5
f 50/121/10 60/117/10 62/122/10
f 64/124/1 66/138/1 65/125/1
f 66/127/2 70/144/2 69/128/2
f 70/130/3 68/146/3 67/131/3
f 68/133/4 64/142/4 63/134/4
f 69/128/5 67/198/5 63/136/5
f 64/124/6 71/152/6 72/137/6
f 74/139/2 78/148/2 75/140/2
f 68/133/6 74/139/6 71/141/6
f 66/127/6 72/150/6 73/143/6
f 70/130/6 73/151/6 74/145/6
f 76/147/6 75/140/6 78/148/6
f 72/150/4 76/147/4 77/149/4
f 73/151/1 77/149/1 78/148/1
f 71/152/3 75/140/3 76/147/3
f 82/153/11 83/155/11 84/158/11
f 79/156/12 84/158/12 83/155/12
f 34/82/2 80/159/2 79/199/2
f 36/79/3 84/161/3 38/80/3
f 35/78/1 83/162/1 81/200/1
f 36/79/4 81/163/4 82/201/4
f 33/81/3 84/164/3 80/202/3
f 34/82/1 83/166/1 37/77/1
