# Blender v2.91.2 OBJ File: 'solar.blend'
# www.blender.org
mtllib saturn_rings.mtl
o Cylinder_Cylinder.001
v 100.000023 -0.003591 -102.592377
v 100.000038 0.003591 -101.496193
v 100.254120 -0.003591 -102.579887
v 100.146690 0.003591 -101.488983
v 100.505775 -0.003591 -102.542564
v 100.291939 0.003591 -101.467438
v 100.752556 -0.003591 -102.480743
v 100.434364 0.003591 -101.431763
v 100.992088 -0.003591 -102.395042
v 100.572617 0.003591 -101.382301
v 101.222069 -0.003591 -102.286263
v 100.705353 0.003591 -101.319519
v 101.440285 -0.003591 -102.155472
v 100.831291 0.003591 -101.244034
v 101.644623 -0.003591 -102.003922
v 100.949234 0.003591 -101.156563
v 101.833130 -0.003591 -101.833076
v 101.058029 0.003591 -101.057961
v 102.003975 -0.003591 -101.644569
v 101.156631 0.003591 -100.949165
v 102.155525 -0.003591 -101.440231
v 101.244102 0.003591 -100.831223
v 102.286316 -0.003591 -101.222023
v 101.319588 0.003591 -100.705284
v 102.395088 -0.003591 -100.992035
v 101.382370 0.003591 -100.572548
v 102.480797 -0.003591 -100.752502
v 101.431831 0.003591 -100.434296
v 102.542618 -0.003591 -100.505722
v 101.467514 0.003591 -100.291870
v 102.579941 -0.003591 -100.254066
v 101.489059 0.003591 -100.146622
v 102.592422 -0.003591 -99.999969
v 101.496262 0.003591 -99.999969
v 102.579941 -0.003591 -99.745865
v 101.489059 0.003591 -99.853310
v 102.542618 -0.003591 -99.494217
v 101.467514 0.003591 -99.708069
v 102.480797 -0.003591 -99.247429
v 101.431831 0.003591 -99.565636
v 102.395088 -0.003591 -99.007896
v 101.382370 0.003591 -99.427391
v 102.286316 -0.003591 -98.777916
v 101.319588 0.003591 -99.294655
v 102.155525 -0.003591 -98.559700
v 101.244102 0.003591 -99.168709
v 102.003975 -0.003591 -98.355362
v 101.156631 0.003591 -99.050774
v 101.833130 -0.003591 -98.166855
v 101.058029 0.003591 -98.941978
v 101.644623 -0.003591 -97.996010
v 100.949234 0.003591 -98.843369
v 101.440285 -0.003591 -97.844460
v 100.831291 0.003591 -98.755905
v 101.222069 -0.003591 -97.713669
v 100.705353 0.003591 -98.680420
v 100.992088 -0.003591 -97.604897
v 100.572617 0.003591 -98.617638
v 100.752556 -0.003591 -97.519188
v 100.434364 0.003591 -98.568169
v 100.505768 -0.003591 -97.457375
v 100.291939 0.003591 -98.532494
v 100.254120 -0.003591 -97.420044
v 100.146690 0.003591 -98.510948
v 100.000015 -0.003591 -97.407562
v 100.000038 0.003591 -98.503746
v 99.745918 -0.003591 -97.420044
v 99.853378 0.003591 -98.510948
v 99.494263 -0.003591 -97.457375
v 99.708138 0.003591 -98.532494
v 99.247482 -0.003591 -97.519188
v 99.565704 0.003591 -98.568169
v 99.007950 -0.003591 -97.604897
v 99.427460 0.003591 -98.617638
v 98.777962 -0.003591 -97.713669
v 99.294724 0.003591 -98.680420
v 98.559753 -0.003591 -97.844460
v 99.168777 0.003591 -98.755905
v 98.355415 -0.003591 -97.996010
v 99.050842 0.003591 -98.843376
v 98.166908 -0.003591 -98.166862
v 98.942047 0.003591 -98.941978
v 97.996063 -0.003591 -98.355362
v 98.843437 0.003591 -99.050774
v 97.844513 -0.003591 -98.559708
v 98.755974 0.003591 -99.168709
v 97.713722 -0.003591 -98.777916
v 98.680489 0.003591 -99.294655
v 97.604950 -0.003591 -99.007896
v 98.617706 0.003591 -99.427391
v 97.519241 -0.003591 -99.247429
v 98.568245 0.003591 -99.565636
v 97.457428 -0.003591 -99.494217
v 98.532562 0.003591 -99.708069
v 97.420097 -0.003591 -99.745865
v 98.511017 0.003591 -99.853310
v 97.407616 -0.003591 -99.999969
v 98.503815 0.003591 -99.999969
v 97.420097 -0.003591 -100.254066
v 98.511017 0.003591 -100.146622
v 97.457428 -0.003591 -100.505722
v 98.532562 0.003591 -100.291862
v 97.519241 -0.003591 -100.752502
v 98.568237 0.003591 -100.434296
v 97.604950 -0.003591 -100.992035
v 98.617706 0.003591 -100.572548
v 97.713722 -0.003591 -101.222015
v 98.680489 0.003591 -100.705284
v 97.844513 -0.003591 -101.440231
v 98.755974 0.003591 -100.831223
v 97.996056 -0.003591 -101.644569
v 98.843437 0.003591 -100.949158
v 98.166908 -0.003591 -101.833069
v 98.942047 0.003591 -101.057953
v 98.355408 -0.003591 -102.003922
v 99.050842 0.003591 -101.156563
v 98.559753 -0.003591 -102.155472
v 99.168777 0.003591 -101.244026
v 98.777962 -0.003591 -102.286263
v 99.294716 0.003591 -101.319519
v 99.007942 -0.003591 -102.395035
v 99.427452 0.003591 -101.382294
v 99.247475 -0.003591 -102.480743
v 99.565704 0.003591 -101.431763
v 99.494255 -0.003591 -102.542557
v 99.708138 0.003591 -101.467438
v 99.745911 -0.003591 -102.579887
v 99.853378 0.003591 -101.488983
vt 0.999335 31.919535
vt 0.000663 30.952631
vt 0.000663 31.919535
vt 0.999335 30.952631
vt 0.000663 29.985729
vt 0.999334 29.985729
vt 0.000663 29.018826
vt 0.999334 29.018826
vt 0.000663 28.051918
vt 0.999334 28.051918
vt 0.000663 27.085014
vt 0.999334 27.085014
vt 0.000663 26.118107
vt 0.999334 26.118107
vt 0.000663 25.151205
vt 0.999334 25.151205
vt 0.000663 24.184298
vt 0.999334 24.184298
vt 0.000663 23.217396
vt 0.999334 23.217396
vt 0.000663 22.250488
vt 0.999334 22.250488
vt 0.000663 21.283585
vt 0.999334 21.283585
vt 0.000663 20.316679
vt 0.999334 20.316679
vt 0.000663 19.349775
vt 0.999334 19.349775
vt 0.000663 18.382870
vt 0.999334 18.382870
vt 0.000663 17.415966
vt 0.999334 17.415966
vt 0.000663 16.449059
vt 0.999334 15.482157
vt 0.000663 15.482157
vt 0.999334 14.515253
vt 0.000663 14.515253
vt 0.999334 13.548347
vt 0.000663 13.548347
vt 0.999334 12.581444
vt 0.000663 12.581444
vt 0.999334 11.614537
vt 0.000663 11.614537
vt 0.999334 10.647635
vt 0.000663 10.647635
vt 0.999334 9.680728
vt 0.000663 9.680728
vt 0.999334 8.713824
vt 0.000663 8.713824
vt 0.999334 7.746917
vt 0.000663 7.746917
vt 0.999334 6.780015
vt 0.000663 6.780015
vt 0.999334 5.813108
vt 0.000663 5.813108
vt 0.999334 4.846205
vt 0.000663 4.846205
vt 0.999334 3.879298
vt 0.000663 3.879298
vt 0.999334 2.912395
vt 0.000663 2.912395
vt 0.999334 1.945489
vt 0.000663 1.945489
vt 0.999334 0.978586
vt 0.000663 0.978586
vt 0.999334 0.011681
vt 0.000663 0.011681
vt 0.999334 -0.955224
vt 0.000663 -0.955224
vt 0.999334 -1.922129
vt 0.000663 -1.922129
vt 0.999334 -2.889034
vt 0.000663 -2.889034
vt 0.999334 -3.855938
vt 0.000663 -3.855938
vt 0.999334 -4.822844
vt 0.000663 -4.822844
vt 0.999334 -5.789748
vt 0.000663 -5.789748
vt 0.999334 -6.756653
vt 0.000663 -6.756653
vt 0.999334 -7.723557
vt 0.000663 -7.723557
vt 0.999334 -8.690460
vt 0.000663 -8.690460
vt 0.999334 -9.657365
vt 0.000663 -9.657365
vt 0.999334 -10.624270
vt 0.000663 -10.624270
vt 0.999334 -11.591175
vt 0.000663 -11.591175
vt 0.999334 -12.558080
vt 0.000663 -12.558080
vt 0.999334 -13.524984
vt 0.000663 -13.524984
vt 0.000663 -14.491889
vt 0.999334 -14.491889
vt 0.000663 -15.458794
vt 0.999334 -15.458794
vt 0.000663 -16.425699
vt 0.999334 -16.425699
vt 0.000663 -17.392603
vt 0.999334 -17.392603
vt 0.000663 -18.359509
vt 0.999334 -18.359509
vt 0.000663 -19.326414
vt 0.999334 -19.326414
vt 0.000663 -20.293316
vt 0.999332 -20.293316
vt 0.000663 -21.260223
vt 0.999334 -21.260223
vt 0.000663 -22.227125
vt 0.999332 -22.227125
vt 0.000663 -23.194033
vt 0.999334 -23.194033
vt 0.000663 -24.160936
vt 0.999332 -24.160936
vt 0.000663 -25.127840
vt 0.999333 -25.127840
vt 0.000663 -26.094746
vt 0.999333 -26.094746
vt 0.000663 -27.061649
vt 0.999333 -27.061649
vt 0.000663 -28.028557
vt 0.999333 -28.028557
vt 0.000663 -28.995457
vt 0.999333 -28.995462
vt 0.000663 -29.962366
vt 0.999334 16.449059
vt 0.999333 -29.962366
vn 0.0003 1.0000 -0.0066
vn 0.0010 1.0000 -0.0065
vn 0.0016 1.0000 -0.0064
vn 0.0022 1.0000 -0.0062
vn 0.0028 1.0000 -0.0059
vn 0.0034 1.0000 -0.0056
vn 0.0039 1.0000 -0.0053
vn 0.0044 1.0000 -0.0049
vn 0.0049 1.0000 -0.0044
vn 0.0053 1.0000 -0.0039
vn 0.0056 1.0000 -0.0034
vn 0.0059 1.0000 -0.0028
vn 0.0062 1.0000 -0.0022
vn 0.0064 1.0000 -0.0016
vn 0.0065 1.0000 -0.0010
vn 0.0066 1.0000 -0.0003
vn 0.0066 1.0000 0.0003
vn 0.0065 1.0000 0.0010
vn 0.0064 1.0000 0.0016
vn 0.0062 1.0000 0.0022
vn 0.0059 1.0000 0.0028
vn 0.0056 1.0000 0.0034
vn 0.0053 1.0000 0.0039
vn 0.0049 1.0000 0.0044
vn 0.0044 1.0000 0.0049
vn 0.0039 1.0000 0.0053
vn 0.0034 1.0000 0.0056
vn 0.0028 1.0000 0.0059
vn 0.0022 1.0000 0.0062
vn 0.0016 1.0000 0.0064
vn 0.0010 1.0000 0.0065
vn 0.0003 1.0000 0.0066
vn -0.0003 1.0000 0.0066
vn -0.0010 1.0000 0.0065
vn -0.0016 1.0000 0.0064
vn -0.0022 1.0000 0.0062
vn -0.0028 1.0000 0.0059
vn -0.0034 1.0000 0.0056
vn -0.0039 1.0000 0.0053
vn -0.0044 1.0000 0.0049
vn -0.0049 1.0000 0.0044
vn -0.0053 1.0000 0.0039
vn -0.0056 1.0000 0.0034
vn -0.0059 1.0000 0.0028
vn -0.0062 1.0000 0.0022
vn -0.0064 1.0000 0.0016
vn -0.0065 1.0000 0.0010
vn -0.0066 1.0000 0.0003
vn -0.0066 1.0000 -0.0003
vn -0.0065 1.0000 -0.0010
vn -0.0064 1.0000 -0.0016
vn -0.0062 1.0000 -0.0022
vn -0.0059 1.0000 -0.0028
vn -0.0056 1.0000 -0.0034
vn -0.0053 1.0000 -0.0039
vn -0.0049 1.0000 -0.0044
vn -0.0044 1.0000 -0.0049
vn -0.0039 1.0000 -0.0053
vn -0.0034 1.0000 -0.0056
vn -0.0028 1.0000 -0.0059
vn -0.0022 1.0000 -0.0062
vn -0.0016 1.0000 -0.0064
vn -0.0010 1.0000 -0.0065
vn -0.0003 1.0000 -0.0066
usemtl Rings
s off
f 2/1/1 3/2/1 1/3/1
f 4/4/2 5/5/2 3/2/2
f 6/6/3 7/7/3 5/5/3
f 8/8/4 9/9/4 7/7/4
f 10/10/5 11/11/5 9/9/5
f 12/12/6 13/13/6 11/11/6
f 14/14/7 15/15/7 13/13/7
f 16/16/8 17/17/8 15/15/8
f 18/18/9 19/19/9 17/17/9
f 20/20/10 21/21/10 19/19/10
f 22/22/11 23/23/11 21/21/11
f 24/24/12 25/25/12 23/23/12
f 26/26/13 27/27/13 25/25/13
f 28/28/14 29/29/14 27/27/14
f 30/30/15 31/31/15 29/29/15
f 32/32/16 33/33/16 31/31/16
f 33/33/17 36/34/17 35/35/17
f 35/35/18 38/36/18 37/37/18
f 37/37/19 40/38/19 39/39/19
f 39/39/20 42/40/20 41/41/20
f 41/41/21 44/42/21 43/43/21
f 43/43/22 46/44/22 45/45/22
f 45/45/23 48/46/23 47/47/23
f 47/47/24 50/48/24 49/49/24
f 49/49/25 52/50/25 51/51/25
f 51/51/26 54/52/26 53/53/26
f 53/53/27 56/54/27 55/55/27
f 55/55/28 58/56/28 57/57/28
f 57/57/29 60/58/29 59/59/29
f 59/59/30 62/60/30 61/61/30
f 61/61/31 64/62/31 63/63/31
f 63/63/32 66/64/32 65/65/32
f 65/65/33 68/66/33 67/67/33
f 67/67/34 70/68/34 69/69/34
f 69/69/35 72/70/35 71/71/35
f 71/71/36 74/72/36 73/73/36
f 73/73/37 76/74/37 75/75/37
f 75/75/38 78/76/38 77/77/38
f 77/77/39 80/78/39 79/79/39
f 79/79/40 82/80/40 81/81/40
f 81/81/41 84/82/41 83/83/41
f 83/83/42 86/84/42 85/85/42
f 85/85/43 88/86/43 87/87/43
f 87/87/44 90/88/44 89/89/44
f 89/89/45 92/90/45 91/91/45
f 91/91/46 94/92/46 93/93/46
f 93/93/47 96/94/47 95/95/47
f 96/94/48 97/96/48 95/95/48
f 98/97/49 99/98/49 97/96/49
f 100/99/50 101/100/50 99/98/50
f 102/101/51 103/102/51 101/100/51
f 104/103/52 105/104/52 103/102/52
f 106/105/53 107/106/53 105/104/53
f 108/107/54 109/108/54 107/106/54
f 110/109/55 111/110/55 109/108/55
f 112/111/56 113/112/56 111/110/56
f 114/113/57 115/114/57 113/112/57
f 116/115/58 117/116/58 115/114/58
f 118/117/59 119/118/59 117/116/59
f 120/119/60 121/120/60 119/118/60
f 122/121/61 123/122/61 121/120/61
f 124/123/62 125/124/62 123/122/62
f 126/125/63 127/126/63 125/124/63
f 128/127/64 1/128/64 127/126/64
f 2/1/1 4/4/1 3/2/1
f 4/4/2 6/6/2 5/5/2
f 6/6/3 8/8/3 7/7/3
f 8/8/4 10/10/4 9/9/4
f 10/10/5 12/12/5 11/11/5
f 12/12/6 14/14/6 13/13/6
f 14/14/7 16/16/7 15/15/7
f 16/16/8 18/18/8 17/17/8
f 18/18/9 20/20/9 19/19/9
f 20/20/10 22/22/10 21/21/10
f 22/22/11 24/24/11 23/23/11
f 24/24/12 26/26/12 25/25/12
f 26/26/13 28/28/13 27/27/13
f 28/28/14 30/30/14 29/29/14
f 30/30/15 32/32/15 31/31/15
f 32/32/16 34/129/16 33/33/16
f 33/33/17 34/129/17 36/34/17
f 35/35/18 36/34/18 38/36/18
f 37/37/19 38/36/19 40/38/19
f 39/39/20 40/38/20 42/40/20
f 41/41/21 42/40/21 44/42/21
f 43/43/22 44/42/22 46/44/22
f 45/45/23 46/44/23 48/46/23
f 47/47/24 48/46/24 50/48/24
f 49/49/25 50/48/25 52/50/25
f 51/51/26 52/50/26 54/52/26
f 53/53/27 54/52/27 56/54/27
f 55/55/28 56/54/28 58/56/28
f 57/57/29 58/56/29 60/58/29
f 59/59/30 60/58/30 62/60/30
f 61/61/31 62/60/31 64/62/31
f 63/63/32 64/62/32 66/64/32
f 65/65/33 66/64/33 68/66/33
f 67/67/34 68/66/34 70/68/34
f 69/69/35 70/68/35 72/70/35
f 71/71/36 72/70/36 74/72/36
f 73/73/37 74/72/37 76/74/37
f 75/75/38 76/74/38 78/76/38
f 77/77/39 78/76/39 80/78/39
f 79/79/40 80/78/40 82/80/40
f 81/81/41 82/80/41 84/82/41
f 83/83/42 84/82/42 86/84/42
f 85/85/43 86/84/43 88/86/43
f 87/87/44 88/86/44 90/88/44
f 89/89/45 90/88/45 92/90/45
f 91/91/46 92/90/46 94/92/46
f 93/93/47 94/92/47 96/94/47
f 96/94/48 98/97/48 97/96/48
f 98/97/49 100/99/49 99/98/49
f 100/99/50 102/101/50 101/100/50
f 102/101/51 104/103/51 103/102/51
f 104/103/52 106/105/52 105/104/52
f 106/105/53 108/107/53 107/106/53
f 108/107/54 110/109/54 109/108/54
f 110/109/55 112/111/55 111/110/55
f 112/111/56 114/113/56 113/112/56
f 114/113/57 116/115/57 115/114/57
f 116/115/58 118/117/58 117/116/58
f 118/117/59 120/119/59 119/118/59
f 120/119/60 122/121/60 121/120/60
f 122/121/61 124/123/61 123/122/61
f 124/123/62 126/125/62 125/124/62
f 126/125/63 128/127/63 127/126/63
f 128/127/64 2/130/64 1/128/64
